<svg width="41" height="15" viewBox="0 0 41 15" fill="none" xmlns="http://www.w3.org/2000/svg">
<path d="M7.1567 8.60718C5.44822 8.60718 4.06287 9.99212 4.06287 11.701C4.06287 11.8328 4.07364 11.9624 4.09021 12.0896C4.28202 13.6146 5.57996 14.794 7.15629 14.794C8.77529 14.794 10.1026 13.5495 10.2373 11.9645C10.2443 11.8779 10.2501 11.7897 10.2501 11.7006C10.2505 9.99212 8.86561 8.60718 7.1567 8.60718ZM5.60813 10.5352L6.23866 11.1662C6.18978 11.2503 6.15125 11.341 6.12639 11.4379H5.23735C5.28292 11.1016 5.41176 10.7942 5.60813 10.5352ZM5.23321 11.9736H6.12929C6.15456 12.0689 6.19185 12.1592 6.24156 12.2421L5.60937 12.8738C5.41342 12.617 5.28168 12.3096 5.23321 11.9736ZM6.88908 13.6229C6.55393 13.576 6.24943 13.4447 5.99175 13.2504L6.62063 12.6211C6.70348 12.6696 6.79421 12.7052 6.88908 12.7301V13.6229ZM6.88908 10.6719C6.79172 10.6976 6.70058 10.7357 6.61566 10.7859L5.98554 10.1558C6.24446 9.95897 6.55186 9.82889 6.88908 9.78208V10.6719ZM7.42474 9.78125C7.76197 9.82806 8.06978 9.95897 8.32829 10.1553L7.69858 10.7855C7.61407 10.7353 7.5221 10.6972 7.42516 10.6715L7.42474 9.78125ZM7.42474 13.622V12.7305C7.52003 12.7052 7.60993 12.67 7.69278 12.6211L8.32207 13.2504C8.06439 13.4447 7.75948 13.5752 7.42474 13.622ZM8.7057 12.8767L8.07143 12.2417C8.12115 12.1584 8.16133 12.0693 8.1866 11.974H9.07565C9.02842 12.3088 8.90206 12.6186 8.7057 12.8767ZM8.18785 11.4379C8.16258 11.341 8.12446 11.2503 8.07558 11.1662L8.70694 10.5352C8.90206 10.7942 9.0309 11.1016 9.0773 11.4384H8.18785V11.4379Z" fill="#9DA2AB"/>
<path d="M32.8458 8.60718C31.1373 8.60718 29.752 9.99212 29.752 11.701C29.752 11.8328 29.7627 11.9624 29.7793 12.0896C29.9711 13.6146 31.269 14.794 32.845 14.794C34.464 14.794 35.7913 13.5495 35.9264 11.9645C35.9334 11.8779 35.9392 11.7897 35.9392 11.7006C35.94 9.99212 34.5547 8.60718 32.8458 8.60718ZM31.2972 10.5352L31.9273 11.1662C31.8784 11.2503 31.8399 11.341 31.8151 11.4379H30.926C30.972 11.1016 31.1008 10.7942 31.2972 10.5352ZM30.9227 11.9736H31.8188C31.8441 12.0689 31.8813 12.1592 31.9311 12.2421L31.2993 12.8738C31.1025 12.617 30.9703 12.3096 30.9227 11.9736ZM32.5782 13.6229C32.243 13.576 31.9385 13.4447 31.6808 13.2504L32.3097 12.6211C32.3926 12.6696 32.4833 12.7052 32.5782 12.7301V13.6229ZM32.5782 10.6719C32.4808 10.6976 32.3897 10.7357 32.3047 10.7859L31.6746 10.1558C31.9335 9.95897 32.2405 9.82889 32.5782 9.78208V10.6719ZM33.1142 9.78125C33.4515 9.82806 33.7593 9.95897 34.0178 10.1553L33.3877 10.7855C33.3032 10.7353 33.2112 10.6964 33.1142 10.6715V9.78125ZM33.1142 13.622V12.7305C33.2095 12.7052 33.2994 12.67 33.3823 12.6211L34.0116 13.2504C33.7539 13.4447 33.4486 13.5752 33.1142 13.622ZM34.3948 12.8767L33.7605 12.2425C33.8102 12.1588 33.8508 12.0701 33.8757 11.9744H34.7647C34.7175 12.3088 34.5916 12.6186 34.3948 12.8767ZM33.8769 11.4379C33.8517 11.341 33.814 11.2503 33.7647 11.1662L34.3956 10.5352C34.5911 10.7942 34.7196 11.1016 34.7664 11.4384H33.8769V11.4379Z" fill="#9DA2AB"/>
<path d="M40.2746 7.00557V4.71626C40.2746 4.34797 40.007 4.03601 39.6432 3.97926C38.7703 3.84255 37.223 3.58445 36.5278 3.37027C35.5311 3.06287 31.6799 1.43227 30.3464 1.12611C29.0124 0.819962 22.9979 -0.814784 17.2373 1.18204C16.2625 1.51968 11.8774 3.61593 9.29891 4.7059C8.53954 4.72247 1.02327 6.28928 0.623073 7.36309C0.222879 8.43732 0.0973524 8.95848 0.0236106 9.23108C-0.0501311 9.50367 0.0236106 10.8082 0.582059 11.7168C1.15128 12.0386 2.24705 12.2549 3.51392 12.3999C3.49942 12.3224 3.48367 12.2462 3.47373 12.1679C3.45177 12.0005 3.44142 11.8477 3.44142 11.7018C3.44142 9.65323 5.10765 7.98617 7.15667 7.98617C9.2057 7.98617 10.8719 9.65281 10.8719 11.7018C10.8719 11.8071 10.8649 11.9115 10.857 12.0142C10.8375 12.2441 10.7961 12.4674 10.7361 12.6824C10.7389 12.6824 10.746 12.6824 10.746 12.6824L29.1881 12.3112C29.1798 12.2636 29.169 12.2164 29.1628 12.1679C29.1408 12.0014 29.1305 11.8481 29.1305 11.7018C29.1305 9.65323 30.7967 7.98658 32.8457 7.98658C34.8948 7.98658 36.5614 9.65281 36.5614 11.7018C36.5614 11.7097 36.5606 11.7163 36.5602 11.7238L36.6389 11.7172L39.792 11.1235C39.792 11.1235 40.9996 10.4805 40.9996 8.71157C41 7.5317 40.2746 7.00557 40.2746 7.00557ZM21.9804 4.83516L15.093 5.04603C15.2198 4.01406 14.6087 3.78247 14.6087 3.78247C17.3467 1.29721 22.8649 1.21311 22.8649 1.21311L21.9804 4.83516ZM29.71 4.51989L23.4337 4.73076L24.0025 1.21353C27.2463 1.17127 29.0994 1.88715 29.0994 1.88715L30.0261 3.38269L29.71 4.51989ZM33.2484 4.49835H31.4997L29.7515 2.0976C31.0631 2.61959 32.1129 3.13413 32.738 3.45934C33.1175 3.65653 33.3246 4.07786 33.2484 4.49835Z" fill="#9DA2AB"/>
</svg>
