<svg width="41" height="17" viewBox="0 0 41 17" fill="none" xmlns="http://www.w3.org/2000/svg">
<path d="M5.76571 10.6296C4.26153 10.6441 3.0543 11.8745 3.06836 13.3783C3.0696 13.4945 3.08035 13.6082 3.09566 13.7199C3.2768 15.0611 4.42986 16.0889 5.81741 16.0752C7.24384 16.0624 8.40061 14.9557 8.50566 13.5586C8.51145 13.4821 8.516 13.4047 8.51517 13.3262C8.50111 11.8228 7.26989 10.6156 5.76571 10.6296ZM5.53948 11.6661L5.54693 12.4494C5.46132 12.473 5.3815 12.5073 5.30705 12.5528L4.74707 12.0031C4.9733 11.8278 5.24295 11.7099 5.53948 11.6661ZM4.41745 12.3394L4.97867 12.8898C4.93566 12.9655 4.90257 13.0453 4.8819 13.1301L4.09941 13.1384C4.13704 12.8402 4.24788 12.5693 4.41745 12.3394ZM4.10065 13.6086L4.88934 13.6008C4.9125 13.6851 4.946 13.7646 4.99025 13.8365L4.43895 14.3982C4.26525 14.174 4.1449 13.9043 4.10065 13.6086ZM4.7785 14.7274L5.32732 14.1674C5.40052 14.2096 5.48117 14.2406 5.56471 14.2613L5.57216 15.0462C5.27645 15.0086 5.0068 14.8957 4.7785 14.7274ZM7.47999 13.1061L6.69667 13.114C6.67434 13.0284 6.6396 12.9502 6.59576 12.8749L7.14623 12.315C7.32035 12.5395 7.43615 12.8092 7.47999 13.1061ZM6.01096 11.6611C6.30874 11.7 6.58004 11.8121 6.80958 11.9829L6.26035 12.5428C6.18508 12.4994 6.10443 12.4659 6.01841 12.4444L6.01096 11.6611ZM6.04322 15.0421L6.03578 14.2575C6.11973 14.234 6.19873 14.2021 6.27152 14.1587L6.83067 14.7083C6.60527 14.8808 6.3381 14.9995 6.04322 15.0421ZM7.16526 14.3746L6.60155 13.8212C6.64415 13.748 6.6793 13.6694 6.70081 13.5846L7.4833 13.5768C7.44442 13.8725 7.33524 14.1467 7.16526 14.3746Z" fill="#9DA2AB"/>
<path d="M32.1209 10.6296C30.6167 10.6441 29.4091 11.8745 29.424 13.3783C29.4248 13.4945 29.4355 13.6082 29.4508 13.7199C29.632 15.0611 30.785 16.0889 32.1726 16.0752C33.599 16.0624 34.7558 14.9557 34.8609 13.5586C34.8666 13.4821 34.8712 13.4047 34.8704 13.3262C34.8559 11.8228 33.6251 10.6156 32.1209 10.6296ZM31.8951 11.6661L31.9025 12.4494C31.8169 12.473 31.7375 12.5073 31.6631 12.5528L31.1031 12.0031C31.3289 11.8278 31.5981 11.7099 31.8951 11.6661ZM30.7726 12.3394L31.3335 12.8898C31.2904 12.9655 31.2574 13.0453 31.2371 13.1301L30.4542 13.1384C30.4927 12.8402 30.6031 12.5693 30.7726 12.3394ZM30.4563 13.6086L31.2445 13.6008C31.2681 13.6851 31.3012 13.7646 31.3454 13.8365L30.7941 14.3982C30.6204 14.174 30.5005 13.9043 30.4563 13.6086ZM31.1337 14.7274L31.6821 14.1674C31.7557 14.2096 31.8364 14.2406 31.9195 14.2613L31.9269 15.0462C31.6321 15.0086 31.3624 14.8957 31.1337 14.7274ZM33.8352 13.1061L33.0519 13.114C33.0295 13.0284 32.9948 12.9502 32.951 12.8749L33.5014 12.315C33.6755 12.5395 33.7918 12.8092 33.8352 13.1061ZM32.3666 11.6611C32.6648 11.7 32.9357 11.8121 33.1656 11.9829L32.6164 12.5428C32.5407 12.4994 32.4605 12.4659 32.374 12.4444L32.3666 11.6611ZM32.3988 15.0421L32.3914 14.2575C32.4753 14.234 32.5543 14.2021 32.6271 14.1587L33.1863 14.7083C32.9609 14.8808 32.6933 14.9995 32.3988 15.0421ZM33.5205 14.3746L32.9572 13.8212C32.9998 13.748 33.0349 13.6694 33.056 13.5846L33.8385 13.5768C33.7996 13.8725 33.6908 14.1467 33.5205 14.3746Z" fill="#9DA2AB"/>
<path d="M40.6716 11.6483L39.732 11.236C39.732 11.236 40.5509 6.36361 38.3779 1.96108C38.2853 1.77373 38.119 1.63311 37.9188 1.57397C34.8348 0.663683 16.8922 0.768733 12.5723 1.52062C12.1989 1.58596 11.8461 1.74519 11.5512 1.98341C10.3072 2.98923 7.09864 5.79618 7.09864 5.79618C7.09864 5.79618 3.43517 6.44343 2.21678 6.67503C1.15471 6.87686 0.655107 7.43477 0.659656 8.18045C0.664205 8.84135 0.677026 10.8245 0.677026 10.8245L0.272134 10.9465C0.110425 10.9944 0 11.1437 0 11.3129V12.4176C0 12.4176 0.124073 13.0598 0.67744 13.4602C0.758501 13.5193 1.40989 13.5594 2.45872 13.5884C2.45334 13.5214 2.44383 13.4556 2.443 13.3866C2.42563 11.5404 3.91327 10.0238 5.75948 10.006C7.6214 10.006 9.12352 11.4936 9.14048 13.3229C9.1413 13.4184 9.12931 13.6074 9.12931 13.6074L28.8061 13.4792C28.8061 13.4792 28.7991 13.4188 28.7986 13.3857C28.7813 11.5395 30.2689 10.0229 32.1155 10.0052C33.9775 10.0052 35.4796 11.4928 35.4961 13.322C35.4974 13.4085 35.4866 13.5793 35.4866 13.5793L38.1008 13.1475V13.6384C38.1008 13.7505 38.1922 13.8419 38.3047 13.8419H38.765C38.8771 13.8419 38.9685 13.7505 38.9685 13.6384V13.1128H40.4524C40.7547 13.1128 41 12.8671 41 12.5648V12.1516C40.9996 11.9328 40.8706 11.7356 40.6716 11.6483ZM15.5724 5.98394C15.5646 6.11174 15.4587 6.21141 15.3305 6.21141H10.8117C10.8117 6.21141 10.8167 5.0079 10.7923 4.7064C10.7538 4.23286 10.5578 4.05295 10.5578 4.05295L12.215 2.52768C12.4123 2.34653 12.6691 2.24314 12.9367 2.23776L15.5484 2.18317C15.6163 2.18193 15.6816 2.20922 15.7288 2.25802C15.7759 2.30683 15.7999 2.37341 15.7962 2.44124L15.5724 5.98394Z" fill="#9DA2AB"/>
</svg>
