<svg width="15" height="15" viewBox="0 0 15 15" fill="none" xmlns="http://www.w3.org/2000/svg">
<path fill-rule="evenodd" clip-rule="evenodd" d="M10.2845 4.65939C10.4157 4.52934 10.5928 4.45614 10.7776 4.45563C10.9623 4.45512 11.1398 4.52734 11.2717 4.65667C11.4036 4.786 11.4794 4.96206 11.4825 5.14677C11.4857 5.33148 11.416 5.51002 11.2886 5.64377L7.54605 10.3219C7.48173 10.3912 7.4041 10.4468 7.3178 10.4854C7.2315 10.524 7.13831 10.5447 7.04379 10.5465C6.94927 10.5482 6.85537 10.5309 6.7677 10.4955C6.68003 10.4602 6.6004 10.4075 6.53355 10.3406L4.05387 7.86002C3.98479 7.79565 3.92938 7.71802 3.89095 7.63177C3.85252 7.54552 3.83185 7.45242 3.83019 7.35801C3.82852 7.2636 3.84589 7.16982 3.88125 7.08227C3.91662 6.99472 3.96925 6.91519 4.03602 6.84842C4.10279 6.78165 4.18232 6.72902 4.26987 6.69365C4.35742 6.65829 4.4512 6.64092 4.54561 6.64259C4.64002 6.64425 4.73312 6.66492 4.81937 6.70335C4.90562 6.74178 4.98325 6.79719 5.04762 6.86627L7.01074 8.82846L10.2667 4.68002C10.2725 4.67276 10.2788 4.66587 10.2854 4.65939H10.2845Z" fill="white"/>
</svg>
