<svg width="41" height="13" viewBox="0 0 41 13" fill="none" xmlns="http://www.w3.org/2000/svg">
<path d="M7.01378 6.50085C5.31407 6.50085 3.93616 7.87795 3.93616 9.57806C3.93616 9.70967 3.94688 9.83838 3.96339 9.96503C4.15398 11.482 5.44568 12.6553 7.01378 12.6553C8.62519 12.6553 9.94494 11.4168 10.0786 9.84044C10.0864 9.7534 10.0918 9.66635 10.0918 9.57724C10.0922 7.87795 8.71431 6.50085 7.01378 6.50085ZM5.47208 8.4188L6.09998 9.04629C6.05089 9.13003 6.01293 9.2208 5.98818 9.31692H5.10326C5.14988 8.98152 5.27818 8.67664 5.47208 8.4188ZM5.10078 9.85035H5.99189C6.01747 9.94482 6.05377 10.0348 6.10328 10.1169L5.47455 10.7456C5.27983 10.4894 5.14823 10.1837 5.10078 9.85035ZM6.74768 11.4902C6.41393 11.4444 6.11112 11.3132 5.85492 11.1206L6.48076 10.4943C6.56286 10.5422 6.65321 10.5773 6.74768 10.6024V11.4902ZM6.74768 8.55494C6.65073 8.58052 6.55997 8.61806 6.4754 8.66798L5.84791 8.04049C6.10575 7.84453 6.41145 7.7154 6.74768 7.66878V8.55494ZM7.28028 7.66878C7.61569 7.7154 7.9218 7.84535 8.17964 8.0409L7.55257 8.66798C7.46799 8.61806 7.37682 8.57969 7.28028 8.55494V7.66878ZM7.28028 11.4898V10.6024C7.37476 10.5773 7.46469 10.5422 7.54679 10.4935L8.17345 11.1206C7.91726 11.3128 7.61404 11.444 7.28028 11.4898ZM8.55547 10.7481L7.92427 10.1164C7.97295 10.0343 8.0138 9.94565 8.03896 9.84993H8.92347C8.87644 10.1837 8.7502 10.4919 8.55547 10.7481ZM8.03937 9.31733C8.01421 9.22121 7.97667 9.13045 7.92757 9.0467L8.55547 8.41921C8.74978 8.67705 8.87809 8.98193 8.92429 9.31816L8.03937 9.31733Z" fill="#499AEC"/>
<path d="M32.431 6.52765C30.7383 6.52765 29.3666 7.89897 29.3666 9.59207C29.3666 9.72285 29.3769 9.85074 29.393 9.97739C29.5828 11.4873 30.8691 12.6565 32.4306 12.6565C34.035 12.6565 35.349 11.4234 35.4818 9.85363C35.4896 9.76699 35.495 9.68036 35.495 9.59207C35.4958 7.89897 34.1241 6.52765 32.431 6.52765ZM30.8963 8.43734L31.5217 9.06277C31.4731 9.1461 31.4351 9.23645 31.4103 9.33216H30.5291C30.5749 8.99717 30.7028 8.69395 30.8963 8.43734ZM30.5263 9.8627H31.4132C31.4388 9.95718 31.4751 10.0459 31.5242 10.1284L30.8975 10.7555C30.7049 10.4997 30.5733 10.1944 30.5263 9.8627ZM32.1661 11.496C31.834 11.4498 31.5329 11.319 31.2775 11.1263L31.9005 10.5034C31.9821 10.5508 32.0725 10.5863 32.1666 10.6107V11.496H32.1661ZM32.1661 8.57266C32.07 8.59782 31.9793 8.63537 31.8955 8.68487L31.2709 8.06027C31.5275 7.86596 31.832 7.73683 32.1661 7.69021V8.57266ZM32.6967 7.69021C33.0317 7.73683 33.3357 7.86679 33.5919 8.06068L32.9677 8.68487C32.8836 8.63537 32.7932 8.597 32.6967 8.57266V7.69021ZM32.6967 11.4956V10.6107C32.7912 10.5863 32.8807 10.5504 32.9628 10.5026L33.5861 11.1263C33.3308 11.3186 33.0292 11.449 32.6967 11.4956ZM33.9661 10.7567L33.3378 10.128C33.386 10.0459 33.4269 9.958 33.4516 9.8627H34.332C34.2854 10.1944 34.16 10.5009 33.9661 10.7567ZM33.4525 9.33175C33.4277 9.23604 33.3906 9.14569 33.3411 9.06236L33.9665 8.43693C34.16 8.69354 34.2875 8.99676 34.3333 9.33175H33.4525Z" fill="#499AEC"/>
<path d="M40.9876 7.45301C40.9769 7.04747 40.8511 6.65225 40.6238 6.31478L40.4579 6.06725L39.7331 4.15509C39.5965 3.79411 39.2632 3.54286 38.8791 3.51068C38.1662 3.45045 36.9554 3.35887 35.7994 3.31637C31.7589 1.1707 24.2876 -0.986519 17.9517 1.3646C16.6518 1.84687 12.9376 3.73429 12.9376 3.73429C12.9376 3.73429 6.90611 3.58164 2.60445 5.11591C0.9097 5.7203 -0.159216 7.40268 0.0194181 9.19355C0.0553099 9.55206 0.108116 9.87096 0.160098 10.1284C0.242195 10.5356 0.578423 10.8425 0.991385 10.8883L3.66759 11.1816C3.49927 10.8301 3.38087 10.4502 3.33013 10.0451C3.30868 9.87962 3.29795 9.72657 3.29795 9.57805C3.29795 7.52892 4.96506 5.8618 7.01419 5.8618C9.06374 5.8618 10.7313 7.52933 10.7313 9.57805C10.7313 9.68531 10.7243 9.7901 10.7156 9.89489C10.6764 10.3549 10.551 10.7909 10.3575 11.1882H28.9408L29.0914 11.1796C28.9263 10.8322 28.8096 10.4564 28.7597 10.0574C28.7382 9.89118 28.7279 9.73853 28.7279 9.59249C28.7279 7.55037 30.3888 5.88862 32.4314 5.88862C34.4739 5.88862 36.1352 7.54954 36.1352 9.59249C36.1352 9.69934 36.1282 9.8033 36.1196 9.90768C36.094 10.2105 36.0276 10.5009 35.9327 10.7782L36.3506 10.753L39.2298 10.3722C39.7306 10.3058 40.1724 10.0108 40.4253 9.57351L40.7121 9.07887C40.9097 8.73645 41.0095 8.34577 40.9988 7.95054L40.9876 7.45301ZM30.7886 3.7677H16.6955C16.6955 3.7677 16.7792 3.43395 16.4108 3.03089C16.4108 3.03089 20.0136 0.706997 25.5777 1.28745C27.1087 1.44752 28.9796 1.55602 31.5266 2.8799L30.7886 3.7677Z" fill="#499AEC"/>
</svg>
