<svg width="41" height="17" viewBox="0 0 41 17" fill="none" xmlns="http://www.w3.org/2000/svg">
<g clip-path="url(#clip0)">
<path d="M6.55533 9.96741C4.7667 9.96741 3.31628 11.4166 3.31628 13.206C3.31628 13.3447 3.32749 13.4799 3.34492 13.6136C3.54536 15.2101 4.90489 16.4455 6.55533 16.4455C8.25142 16.4455 9.64042 15.1416 9.7811 13.482C9.78857 13.3903 9.79521 13.2994 9.79521 13.2052C9.79563 11.417 8.34521 9.96741 6.55533 9.96741ZM4.93311 11.9855L5.5942 12.6466C5.54274 12.735 5.50249 12.8296 5.47676 12.9317H4.54509C4.59364 12.5782 4.72935 12.2565 4.93311 11.9855ZM4.54218 13.492H5.48008C5.50664 13.5912 5.54565 13.6866 5.59711 13.7729L4.93477 14.4348C4.73059 14.1655 4.59157 13.8431 4.54218 13.492ZM6.27562 15.2188C5.92495 15.1702 5.60582 15.0329 5.33607 14.8291L5.99467 14.1705C6.08099 14.2211 6.17644 14.2581 6.27562 14.2838V15.2188ZM6.27562 12.1287C6.17354 12.1544 6.07809 12.1955 5.98928 12.2482L5.32943 11.588C5.60043 11.3821 5.92246 11.2456 6.27562 11.1966V12.1287ZM6.8367 11.1966C7.19028 11.2456 7.5119 11.3821 7.78289 11.5884L7.12305 12.2482C7.03424 12.1955 6.93879 12.1544 6.8367 12.1287V11.1966ZM6.8367 15.2184V14.2838C6.9363 14.2576 7.03092 14.2207 7.11765 14.1697L7.77667 14.8291C7.5065 15.0316 7.18696 15.1694 6.8367 15.2184ZM8.1788 14.4373L7.51439 13.7721C7.56585 13.6854 7.60859 13.592 7.63515 13.4916H8.56599C8.51619 13.8431 8.38298 14.1676 8.1788 14.4373ZM7.63515 12.9309C7.60901 12.8296 7.56917 12.7342 7.51771 12.6458L8.1788 11.9847C8.38339 12.2557 8.51827 12.5777 8.56682 12.9301L7.63515 12.9309Z" fill="#499AEC"/>
<path d="M33.8244 9.96741C32.0357 9.96741 30.5853 11.4166 30.5853 13.206C30.5853 13.3447 30.5965 13.4799 30.614 13.6136C30.814 15.2101 32.1739 16.4455 33.824 16.4455C35.5201 16.4455 36.9095 15.1416 37.0497 13.482C37.0572 13.3903 37.0638 13.2994 37.0638 13.2052C37.0647 11.417 35.6143 9.96741 33.8244 9.96741ZM32.2017 11.9855L32.8632 12.6466C32.8118 12.735 32.7711 12.8296 32.7458 12.9317H31.8141C31.8627 12.5782 31.998 12.2565 32.2017 11.9855ZM31.8112 13.492H32.7491C32.7757 13.5912 32.8147 13.6866 32.8661 13.7729L32.2038 14.4344C32.0001 14.1655 31.8606 13.8431 31.8112 13.492ZM33.5447 15.2188C33.194 15.1702 32.8749 15.0329 32.6051 14.8291L33.2637 14.1705C33.35 14.2211 33.4455 14.2581 33.5447 14.2838V15.2188ZM33.5447 12.1287C33.4426 12.1544 33.3471 12.1955 33.2587 12.2482L32.5985 11.588C32.8695 11.3821 33.1919 11.2456 33.5447 11.1966V12.1287ZM34.1053 11.1966C34.4589 11.2456 34.7805 11.3821 35.0511 11.5884L34.3913 12.2482C34.3025 12.1955 34.207 12.1544 34.1053 12.1287V11.1966ZM34.1053 15.2184V14.2838C34.2045 14.2576 34.2995 14.2207 34.3863 14.1697L35.0453 14.8291C34.7751 15.0316 34.4564 15.1694 34.1053 15.2184ZM35.4474 14.4373L34.783 13.7721C34.8345 13.6854 34.8772 13.592 34.9038 13.4916H35.8346C35.7848 13.8431 35.6524 14.1676 35.4474 14.4373ZM34.9046 12.9309C34.8785 12.8296 34.8386 12.7342 34.7872 12.6458L35.4483 11.9847C35.6528 12.2557 35.7877 12.5777 35.8367 12.9301L34.9046 12.9309Z" fill="#499AEC"/>
<path d="M40.7216 8.93697L40.0991 8.34228L40.1004 6.46608C40.1008 5.97348 39.9186 5.49872 39.5887 5.13352L37.2875 2.58503V2.58378C37.2763 2.05425 36.8962 1.60688 36.3758 1.50936C33.6397 0.995176 25.1505 -0.33406 18.4313 1.47118C14.2801 2.58627 10.0596 4.83099 10.0596 4.83099C10.0596 4.83099 2.73075 5.76473 0.974483 8.05385C0.362778 8.85065 0.10631 9.89727 0.0133512 10.8401C-0.116543 12.1578 0.74997 13.3608 2.04102 13.6517L2.71871 13.8045C2.7129 13.7675 2.70419 13.7314 2.69962 13.6932C2.67721 13.5206 2.66601 13.3596 2.66601 13.2048C2.66601 11.0597 4.41148 9.31461 6.5566 9.31461C8.70213 9.31461 10.4476 11.0597 10.4476 13.2048C10.4476 13.3173 10.4401 13.426 10.431 13.536C10.4198 13.6683 10.4011 13.7987 10.3766 13.9265L30.0155 13.9663C29.9977 13.8758 29.9798 13.7858 29.9682 13.6932C29.9458 13.5206 29.9346 13.3596 29.9346 13.2048C29.9346 11.0597 31.6801 9.31461 33.8252 9.31461C35.9707 9.31461 37.7162 11.0597 37.7162 13.2048C37.7162 13.3173 37.7087 13.426 37.6996 13.536C37.6872 13.6874 37.6623 13.836 37.6324 13.9817L37.9005 13.9821L39.0176 13.37C40.1829 12.7321 40.9274 11.5282 40.9777 10.201L41.0001 9.62047C41.0092 9.364 40.9084 9.11583 40.7216 8.93697ZM13.9203 5.09493L14.2208 3.89434C14.2208 3.89434 18.7695 1.51475 26.3826 1.77371V5.32151L14.1896 6.28348C14.1896 6.28348 14.2552 5.52237 13.9203 5.09493ZM33.4575 4.76376L27.7243 5.21611V1.84841C29.6097 1.98536 31.6585 2.28291 33.8576 2.81411C34.08 2.86764 34.2584 3.03281 34.3294 3.25027C34.4008 3.46773 34.3543 3.70676 34.2062 3.88106L33.4575 4.76376Z" fill="#499AEC"/>
</g>
<defs>
<clipPath id="clip0">
<rect width="41" height="17" fill="white"/>
</clipPath>
</defs>
</svg>
