<svg width="41" height="16" viewBox="0 0 41 16" fill="none" xmlns="http://www.w3.org/2000/svg">
<g clip-path="url(#clip0)">
<path d="M7.1567 9.60718C5.44822 9.60718 4.06287 10.9921 4.06287 12.701C4.06287 12.8328 4.07364 12.9624 4.09021 13.0896C4.28202 14.6146 5.57996 15.794 7.15629 15.794C8.77529 15.794 10.1026 14.5495 10.2373 12.9645C10.2443 12.8779 10.2501 12.7897 10.2501 12.7006C10.2505 10.9921 8.86561 9.60718 7.1567 9.60718ZM5.60813 11.5352L6.23866 12.1662C6.18978 12.2503 6.15125 12.341 6.12639 12.4379H5.23735C5.28292 12.1016 5.41176 11.7942 5.60813 11.5352ZM5.23321 12.9736H6.12929C6.15456 13.0689 6.19185 13.1592 6.24156 13.2421L5.60937 13.8738C5.41342 13.617 5.28168 13.3096 5.23321 12.9736ZM6.88908 14.6229C6.55393 14.576 6.24943 14.4447 5.99175 14.2504L6.62063 13.6211C6.70348 13.6696 6.79421 13.7052 6.88908 13.7301V14.6229ZM6.88908 11.6719C6.79172 11.6976 6.70058 11.7357 6.61566 11.7859L5.98554 11.1558C6.24446 10.959 6.55186 10.8289 6.88908 10.7821V11.6719ZM7.42474 10.7812C7.76197 10.8281 8.06978 10.959 8.32829 11.1553L7.69858 11.7855C7.61407 11.7353 7.5221 11.6972 7.42516 11.6715L7.42474 10.7812ZM7.42474 14.622V13.7305C7.52003 13.7052 7.60993 13.67 7.69278 13.6211L8.32207 14.2504C8.06439 14.4447 7.75948 14.5752 7.42474 14.622ZM8.7057 13.8767L8.07143 13.2417C8.12115 13.1584 8.16133 13.0693 8.1866 12.974H9.07565C9.02842 13.3088 8.90206 13.6186 8.7057 13.8767ZM8.18785 12.4379C8.16258 12.341 8.12446 12.2503 8.07558 12.1662L8.70694 11.5352C8.90206 11.7942 9.0309 12.1016 9.0773 12.4384H8.18785V12.4379Z" fill="#499AEC"/>
<path d="M32.8458 9.60718C31.1373 9.60718 29.752 10.9921 29.752 12.701C29.752 12.8328 29.7627 12.9624 29.7793 13.0896C29.9711 14.6146 31.269 15.794 32.845 15.794C34.464 15.794 35.7913 14.5495 35.9264 12.9645C35.9334 12.8779 35.9392 12.7897 35.9392 12.7006C35.94 10.9921 34.5547 9.60718 32.8458 9.60718ZM31.2972 11.5352L31.9273 12.1662C31.8784 12.2503 31.8399 12.341 31.8151 12.4379H30.926C30.972 12.1016 31.1008 11.7942 31.2972 11.5352ZM30.9227 12.9736H31.8188C31.8441 13.0689 31.8813 13.1592 31.9311 13.2421L31.2993 13.8738C31.1025 13.617 30.9703 13.3096 30.9227 12.9736ZM32.5782 14.6229C32.243 14.576 31.9385 14.4447 31.6808 14.2504L32.3097 13.6211C32.3926 13.6696 32.4833 13.7052 32.5782 13.7301V14.6229ZM32.5782 11.6719C32.4808 11.6976 32.3897 11.7357 32.3047 11.7859L31.6746 11.1558C31.9335 10.959 32.2405 10.8289 32.5782 10.7821V11.6719ZM33.1142 10.7812C33.4515 10.8281 33.7593 10.959 34.0178 11.1553L33.3877 11.7855C33.3032 11.7353 33.2112 11.6964 33.1142 11.6715V10.7812ZM33.1142 14.622V13.7305C33.2095 13.7052 33.2994 13.67 33.3823 13.6211L34.0116 14.2504C33.7539 14.4447 33.4486 14.5752 33.1142 14.622ZM34.3948 13.8767L33.7605 13.2425C33.8102 13.1588 33.8508 13.0701 33.8757 12.9744H34.7647C34.7175 13.3088 34.5916 13.6186 34.3948 13.8767ZM33.8769 12.4379C33.8517 12.341 33.814 12.2503 33.7647 12.1662L34.3956 11.5352C34.5911 11.7942 34.7196 12.1016 34.7664 12.4384H33.8769V12.4379Z" fill="#499AEC"/>
<path d="M40.2746 8.00557V5.71626C40.2746 5.34797 40.007 5.03601 39.6432 4.97926C38.7703 4.84255 37.223 4.58445 36.5278 4.37027C35.5311 4.06287 31.6799 2.43227 30.3464 2.12611C29.0124 1.81996 22.9979 0.185216 17.2373 2.18204C16.2625 2.51968 11.8774 4.61593 9.29891 5.7059C8.53954 5.72247 1.02327 7.28928 0.623073 8.36309C0.222879 9.43732 0.0973524 9.95848 0.0236106 10.2311C-0.0501311 10.5037 0.0236106 11.8082 0.582059 12.7168C1.15128 13.0386 2.24705 13.2549 3.51392 13.3999C3.49942 13.3224 3.48367 13.2462 3.47373 13.1679C3.45177 13.0005 3.44142 12.8477 3.44142 12.7018C3.44142 10.6532 5.10765 8.98617 7.15667 8.98617C9.2057 8.98617 10.8719 10.6528 10.8719 12.7018C10.8719 12.8071 10.8649 12.9115 10.857 13.0142C10.8375 13.2441 10.7961 13.4674 10.7361 13.6824C10.7389 13.6824 10.746 13.6824 10.746 13.6824L29.1881 13.3112C29.1798 13.2636 29.169 13.2164 29.1628 13.1679C29.1408 13.0014 29.1305 12.8481 29.1305 12.7018C29.1305 10.6532 30.7967 8.98658 32.8457 8.98658C34.8948 8.98658 36.5614 10.6528 36.5614 12.7018C36.5614 12.7097 36.5606 12.7163 36.5602 12.7238L36.6389 12.7172L39.792 12.1235C39.792 12.1235 40.9996 11.4805 40.9996 9.71157C41 8.5317 40.2746 8.00557 40.2746 8.00557ZM21.9804 5.83516L15.093 6.04603C15.2198 5.01406 14.6087 4.78247 14.6087 4.78247C17.3467 2.29721 22.8649 2.21311 22.8649 2.21311L21.9804 5.83516ZM29.71 5.51989L23.4337 5.73076L24.0025 2.21353C27.2463 2.17127 29.0994 2.88715 29.0994 2.88715L30.0261 4.38269L29.71 5.51989ZM33.2484 5.49835H31.4997L29.7515 3.0976C31.0631 3.61959 32.1129 4.13413 32.738 4.45934C33.1175 4.65653 33.3246 5.07786 33.2484 5.49835Z" fill="#499AEC"/>
</g>
<defs>
<clipPath id="clip0">
<rect width="41" height="16" fill="white"/>
</clipPath>
</defs>
</svg>
