<svg width="41" height="16" viewBox="0 0 41 16" fill="none" xmlns="http://www.w3.org/2000/svg">
<g clip-path="url(#clip0)">
<path d="M40.6287 9.52487L40.3484 9.48119C40.449 5.63868 39.8456 4.86474 39.1706 2.51159H39.5419C39.7183 2.51159 39.8605 2.36859 39.8605 2.19262V1.82625C39.8605 1.65028 39.7175 1.50769 39.5419 1.50769H16.9472C16.6154 1.50769 16.2903 1.59671 16.0051 1.76526L9.15705 5.81053C9.15705 5.81053 2.3016 6.08705 1.23918 7.13835C0.702197 7.66956 0.216731 8.71755 0.0395241 9.92709C-0.137683 11.1362 0.325116 12.4253 0.588043 12.7035C0.851381 12.9817 1.27338 13.1148 1.27338 13.1148L1.4407 13.4325C1.54867 13.6369 1.76214 13.7626 1.99334 13.7568L3.09532 13.7305V10.6878C3.09532 9.50798 4.05306 8.54982 5.23376 8.54982H8.15933C9.19414 8.54982 10.0336 9.38847 10.0336 10.4245V13.5615L10.0835 13.5603L27.9756 13.2854L28.2332 13.3113V10.6874C28.2332 9.50757 29.191 8.54941 30.3712 8.54941H33.2976C34.3328 8.54941 35.1715 9.38805 35.1715 10.4241V13.8541L37.6404 13.3299C37.7703 13.3023 37.8815 13.2161 37.9409 13.0966L38.1214 12.7373L40.6184 12.4105C40.8368 12.382 41.0004 12.1953 41.0004 11.9745V9.958C40.9996 9.74288 40.8421 9.55867 40.6287 9.52487ZM19.1363 6.00793C19.0815 6.06645 19.0048 6.09983 18.9241 6.09983H13.4739C13.4739 6.09983 13.8085 5.92798 13.9837 5.68278C14.1592 5.43839 14.062 4.85938 13.865 4.66404C13.6841 4.48518 13.3202 4.36361 13.3202 4.36361L16.0611 2.67602C16.2367 2.56764 16.4386 2.51077 16.6451 2.51077H18.9644C19.0419 2.51077 19.1161 2.54167 19.1705 2.5969C19.2249 2.65212 19.255 2.7263 19.2537 2.80419L19.2138 5.78951C19.2191 5.87029 19.1915 5.949 19.1363 6.00793ZM25.9814 5.76561C25.7985 5.98774 25.5269 6.11879 25.2384 6.12538L20.8762 6.22017C20.7983 6.22182 20.7225 6.19256 20.6669 6.13816C20.6108 6.08335 20.5795 6.00834 20.5795 5.93045V2.80048C20.5795 2.64058 20.7089 2.51118 20.8688 2.51118H25.7103C25.8603 2.51118 25.9851 2.62533 25.9983 2.77493L26.1937 4.96859C26.2419 5.25253 26.1644 5.54389 25.9814 5.76561ZM38.8858 5.76808C38.8603 5.81135 38.8137 5.83732 38.7634 5.83773L29.9023 5.90449C29.5186 5.90737 29.1609 5.71162 28.9552 5.38729L28.0263 2.90186C27.993 2.81284 28.0053 2.71352 28.0593 2.63563C28.1137 2.55775 28.2027 2.51118 28.2971 2.51118H37.6709C37.7971 2.51118 37.9075 2.59195 37.9466 2.71146L38.8895 5.62673C38.9135 5.67165 38.9118 5.72522 38.8858 5.76808Z" fill="#499AEC"/>
<path d="M6.56324 9.16754C4.81796 9.16754 3.40112 10.5823 3.40112 12.3292C3.40112 12.4648 3.41225 12.5959 3.42873 12.7273C3.62531 14.2859 4.95189 15.4922 6.56283 15.4922C8.22034 15.4922 9.57535 14.2204 9.713 12.5992C9.72083 12.5089 9.7266 12.4203 9.7266 12.3292C9.72701 10.5823 8.311 9.16754 6.56324 9.16754ZM4.9795 11.1383L5.62569 11.7824C5.575 11.8702 5.53462 11.9629 5.51071 12.0618H4.60119C4.64817 11.7164 4.78004 11.4024 4.9795 11.1383ZM4.59789 12.6091H5.51442C5.54039 12.7055 5.57789 12.7982 5.6294 12.8835L4.98198 13.5293C4.78252 13.2668 4.64652 12.9519 4.59789 12.6091ZM6.2896 14.2938C5.94796 14.248 5.636 14.1133 5.37266 13.9146L6.01596 13.2709C6.09962 13.3204 6.19317 13.3562 6.2896 13.3822V14.2938ZM6.2896 11.278C6.19111 11.3035 6.09756 11.3435 6.01019 11.3942L5.36689 10.75C5.63105 10.5485 5.94508 10.4154 6.28919 10.3672L6.2896 11.278ZM6.83688 10.3676C7.18306 10.4154 7.49708 10.5481 7.76166 10.7513L7.11753 11.3946C7.0314 11.3443 6.93703 11.3035 6.83647 11.2788L6.83688 10.3676ZM6.83688 14.2938V13.3818C6.93455 13.3562 7.02728 13.3204 7.11259 13.2701L7.75506 13.9146C7.49214 14.1129 7.18017 14.2472 6.83688 14.2938ZM8.14781 13.531L7.49997 12.8827C7.54942 12.7982 7.59146 12.7072 7.61701 12.6091H8.5253C8.47749 12.9519 8.3485 13.2689 8.14781 13.531ZM7.61701 12.0618C7.59311 11.9633 7.55354 11.8702 7.50368 11.7824L8.14822 11.1383C8.3485 11.4037 8.48038 11.7164 8.52736 12.0618H7.61701Z" fill="#499AEC"/>
<path d="M31.701 9.16754C29.9553 9.16754 28.5381 10.5823 28.5381 12.3292C28.5381 12.4648 28.5488 12.5959 28.5661 12.7273C28.7623 14.2859 30.0893 15.4922 31.7002 15.4922C33.3573 15.4922 34.7123 14.2204 34.85 12.5992C34.8582 12.5089 34.8636 12.4203 34.8636 12.3292C34.8644 10.5823 33.4492 9.16754 31.701 9.16754ZM30.1173 11.1383L30.7627 11.7824C30.712 11.8702 30.672 11.9629 30.6481 12.0618H29.739C29.7855 11.7164 29.9174 11.4024 30.1173 11.1383ZM29.7353 12.6091H30.6518C30.6778 12.7055 30.7148 12.7982 30.7664 12.8835L30.1198 13.5293C29.9199 13.2668 29.7839 12.9519 29.7353 12.6091ZM31.427 14.2938C31.0849 14.248 30.773 14.1133 30.5096 13.9146L31.1533 13.2709C31.237 13.3204 31.331 13.3562 31.427 13.3822V14.2938ZM31.427 11.278C31.3289 11.3035 31.2349 11.3435 31.1472 11.3942L30.5038 10.75C30.7676 10.5485 31.0816 10.4154 31.4262 10.3672L31.427 11.278ZM31.9751 10.3676C32.3208 10.4154 32.6349 10.5481 32.8994 10.7513L32.2553 11.3946C32.1692 11.3443 32.0748 11.3035 31.9747 11.2788L31.9751 10.3676ZM31.9751 14.2938V13.3818C32.0719 13.3562 32.1651 13.3204 32.2504 13.2701L32.8929 13.9146C32.6295 14.1129 32.318 14.2472 31.9751 14.2938ZM33.2856 13.531L32.6373 12.8827C32.6868 12.7982 32.7292 12.7072 32.7548 12.6091H33.6631C33.6153 12.9519 33.4859 13.2689 33.2856 13.531ZM32.7548 12.0618C32.7305 11.9633 32.6909 11.8702 32.6419 11.7824L33.286 11.1383C33.4855 11.4037 33.6182 11.7164 33.6651 12.0618H32.7548Z" fill="#499AEC"/>
</g>
<defs>
<clipPath id="clip0">
<rect width="41" height="16" fill="white"/>
</clipPath>
</defs>
</svg>
