<svg width="41" height="17" viewBox="0 0 41 17" fill="none" xmlns="http://www.w3.org/2000/svg">
<g clip-path="url(#clip0)">
<path d="M7.87375 10.2935C6.1524 10.2935 4.75635 11.6883 4.75635 13.4105C4.75635 13.5441 4.76707 13.6748 4.78356 13.8026C4.97693 15.3401 6.28516 16.5283 7.87334 16.5283C9.50564 16.5283 10.8427 15.2741 10.978 13.6769C10.9854 13.5886 10.9916 13.5004 10.9916 13.4105C10.992 11.6883 9.59635 10.2935 7.87375 10.2935ZM6.31237 12.2359L6.94855 12.872C6.89866 12.957 6.86032 13.0489 6.83558 13.1462H5.93924C5.98583 12.8061 6.1157 12.4969 6.31237 12.2359ZM5.93594 13.6855H6.83847C6.86403 13.7816 6.90155 13.8727 6.95144 13.956L6.31402 14.5934C6.11776 14.3341 5.98377 14.024 5.93594 13.6855ZM7.60411 15.3471C7.26685 15.3009 6.95927 15.1682 6.69993 14.9727L7.33364 14.3386C7.41692 14.3873 7.50846 14.4231 7.60411 14.4483V15.3471ZM7.60411 12.3736C7.50598 12.3991 7.41404 12.4383 7.32869 12.4886L6.69334 11.8533C6.95432 11.6553 7.26437 11.5234 7.60411 11.4768V12.3736ZM8.14381 11.4768C8.48437 11.5234 8.79401 11.6553 9.05458 11.8537L8.41964 12.4886C8.33429 12.4383 8.24235 12.3987 8.14381 12.3736V11.4768ZM8.14381 15.3471V14.4475C8.23988 14.4223 8.33099 14.3868 8.41469 14.337L9.04881 14.9719C8.78906 15.1682 8.4819 15.3001 8.14381 15.3471ZM9.43555 14.5951L8.79607 13.9556C8.84555 13.8719 8.88678 13.7824 8.91234 13.6855H9.80786C9.76044 14.024 9.63304 14.3357 9.43555 14.5951ZM8.91275 13.1462C8.88801 13.0489 8.84967 12.957 8.79978 12.872L9.43596 12.2359C9.63304 12.4969 9.7625 12.8061 9.80909 13.1462H8.91275Z" fill="#499AEC"/>
<path d="M34.6189 10.2935C32.8971 10.2935 31.5015 11.6883 31.5015 13.4105C31.5015 13.5441 31.5118 13.6748 31.5283 13.8026C31.7212 15.3401 33.0303 16.5283 34.618 16.5283C36.2499 16.5283 37.587 15.2741 37.7227 13.6769C37.7301 13.5886 37.7355 13.5004 37.7355 13.4105C37.7363 11.6883 36.341 10.2935 34.6189 10.2935ZM33.0571 12.2359L33.6933 12.872C33.6438 12.957 33.605 13.0489 33.5807 13.1462H32.6839C32.7305 12.8061 32.8604 12.4969 33.0571 12.2359ZM32.6811 13.6855H33.584C33.6096 13.7816 33.6467 13.8727 33.6961 13.956L33.0591 14.5934C32.8625 14.3341 32.7285 14.024 32.6811 13.6855ZM34.3488 15.3471C34.0115 15.3009 33.7044 15.1682 33.445 14.9727L34.0788 14.3386C34.1616 14.3873 34.2536 14.4231 34.3488 14.4483V15.3471ZM34.3488 12.3736C34.2511 12.3991 34.1587 12.4383 34.073 12.4886L33.4376 11.8533C33.699 11.6553 34.0087 11.5234 34.3484 11.4768L34.3488 12.3736ZM34.8889 11.4768C35.2287 11.5234 35.5387 11.6553 35.7997 11.8537L35.1643 12.4886C35.079 12.4383 34.9866 12.3987 34.8889 12.3736V11.4768ZM34.8889 15.3471V14.4475C34.9842 14.4223 35.0761 14.3868 35.159 14.337L35.7931 14.9719C35.5338 15.1682 35.2262 15.3001 34.8889 15.3471ZM36.1803 14.5951L35.5408 13.9556C35.5902 13.8719 35.6315 13.7824 35.6566 13.6855H36.553C36.5051 14.024 36.3773 14.3357 36.1803 14.5951ZM35.657 13.1462C35.6323 13.0489 35.5944 12.957 35.5449 12.872L36.1807 12.2359C36.3777 12.4969 36.5072 12.8061 36.5542 13.1462H35.657Z" fill="#499AEC"/>
<path d="M40.8553 7.76526C40.8322 7.07672 40.6426 6.40426 40.3032 5.80518L38.0644 1.85493C37.6975 1.20803 37.025 0.794081 36.2825 0.756561C32.5305 0.568552 21.0265 0.0894585 17.4049 1.06331C14.955 1.72258 8.77296 5.78663 8.77296 5.78663C8.77296 5.78663 1.97124 6.84006 0.673728 9.94221C0.673728 9.94221 0.113824 10.2692 0.0119854 11.1074C-0.0403768 11.5386 0.0874364 12.1934 0.228443 12.7421C0.383056 13.3425 0.880703 13.7943 1.49297 13.8896L4.44504 14.3522C4.40093 14.191 4.36423 14.0273 4.34279 13.8582C4.32424 13.7123 4.31187 13.563 4.31187 13.4101C4.31187 11.4463 5.90953 9.84903 7.87373 9.84903C9.83835 9.84903 11.436 11.4463 11.436 13.4101C11.436 13.5127 11.4294 13.6133 11.4212 13.7131C11.3915 14.0611 11.3107 14.3938 11.1874 14.7059L11.5346 14.7245L31.1469 14.1939C31.1217 14.0834 31.1019 13.972 31.0871 13.8582C31.0681 13.7123 31.0566 13.563 31.0566 13.4101C31.0566 11.4463 32.6542 9.84903 34.618 9.84903C36.5826 9.84903 38.1803 11.4463 38.1803 13.4101C38.1803 13.5127 38.1737 13.6133 38.1651 13.7131C38.1597 13.7791 38.1481 13.843 38.1395 13.9081L39.832 13.5626C40.53 13.42 41.0239 12.7957 40.9992 12.0829L40.8553 7.76526ZM29.5682 1.48633L30.0188 5.98495L23.1029 6.26778V1.46366C25.1248 1.41707 27.4329 1.43809 29.5682 1.48633ZM12.1163 6.58938L11.4323 6.62772C11.2464 6.63803 11.0761 6.52506 11.0134 6.34942C10.9507 6.1746 11.0113 5.97959 11.161 5.8695C11.563 5.57594 12.0553 5.22508 12.6036 4.85442V6.00226C12.2697 6.28469 12.1163 6.58938 12.1163 6.58938ZM13.8113 5.53636C13.768 5.53801 13.7325 5.54873 13.6913 5.55286V4.14155C15.0857 3.25758 16.666 2.37979 18.025 1.93986C18.6434 1.7399 19.7715 1.61209 21.1733 1.53581V6.34653L15.2312 6.58938C15.2312 6.58938 15.0251 5.49101 13.8113 5.53636ZM37.836 5.10015C37.6286 5.4605 37.251 5.68933 36.8358 5.70664L31.9492 5.9062L31.5113 1.53828C33.5308 1.59972 35.2179 1.67558 36.0726 1.72176C36.468 1.74278 36.8247 1.97079 37.009 2.32124L37.8571 3.93045C38.0513 4.29864 38.043 4.74062 37.836 5.10015Z" fill="#499AEC"/>
</g>
<defs>
<clipPath id="clip0">
<rect width="41" height="17" fill="white"/>
</clipPath>
</defs>
</svg>
